<svg width="160" height="47" viewBox="0 0 160 47" fill="none" xmlns="http://www.w3.org/2000/svg">
            <path d="M159.111 40.8917C159.111 43.3549 157.074 45.3502 154.555 45.3502H5.45108C2.93292 45.3502 0.888916 43.3549 0.888916 40.8917V5.33652C0.888916 2.87445 2.93292 0.872192 5.45108 0.872192H154.554C157.074 0.872192 159.11 2.87445 159.11 5.33652L159.111 40.8917Z" fill="#323232"></path>
            <path d="M154.074 0.925835C156.818 0.925835 159.05 3.10262 159.05 5.77773V40.4444C159.05 43.1195 156.818 45.2963 154.074 45.2963H5.92593C3.18222 45.2963 0.949629 43.1195 0.949629 40.4444V5.77773C0.949629 3.10262 3.18222 0.925835 5.92593 0.925835H154.074ZM154.074 -4.9711e-05H5.92593C2.66815 -4.9711e-05 0 2.60139 0 5.77773V40.4444C0 43.6207 2.66815 46.2222 5.92593 46.2222H154.074C157.332 46.2222 160 43.6207 160 40.4444V5.77773C160 2.60139 157.332 -4.9711e-05 154.074 -4.9711e-05Z" fill="#A6A6A6"></path>
            <path d="M35.7071 22.8615C35.6728 19.1371 38.8348 17.3252 38.9794 17.2409C37.1886 14.6952 34.4129 14.3474 33.4375 14.3196C31.1062 14.0804 28.8449 15.6797 27.6574 15.6797C26.4461 15.6797 24.6174 14.3427 22.6464 14.382C20.1101 14.4202 17.7374 15.8519 16.436 18.0752C13.7504 22.6084 15.7534 29.2702 18.3264 32.9345C19.6135 34.7291 21.1175 36.7328 23.0861 36.6623C25.012 36.5849 25.7314 35.4651 28.0556 35.4651C30.3584 35.4651 31.0339 36.6623 33.0416 36.6172C35.1086 36.5849 36.4099 34.8146 37.652 33.0038C39.1394 30.9469 39.7368 28.9212 39.7605 28.8172C39.7119 28.8011 35.7462 27.3254 35.7071 22.8615Z" fill="white"></path>
            <path d="M31.9145 11.9091C32.9504 10.6461 33.6591 8.92782 33.4624 7.18408C31.9631 7.24879 30.0882 8.19519 29.0085 9.43048C28.0532 10.519 27.1999 12.3032 27.4203 13.9811C29.1045 14.1035 30.8336 13.1525 31.9145 11.9091Z" fill="white"></path>
            <path d="M63.5797 36.4045H60.8881L59.4137 31.8874H54.289L52.8845 36.4045H50.2641L55.3414 21.0264H58.4774L63.5797 36.4045ZM58.9693 29.9923L57.636 25.9768C57.4949 25.5665 57.2306 24.6005 56.8407 23.0798H56.7933C56.638 23.7338 56.3879 24.6999 56.0442 25.9768L54.7346 29.9923H58.9693Z" fill="white"></path>
            <path d="M76.6366 30.7239C76.6366 32.6098 76.1139 34.1004 75.0686 35.1947C74.1323 36.1689 72.9696 36.6554 71.5817 36.6554C70.0837 36.6554 69.0075 36.1307 68.3521 35.0815H68.3047V40.9228H65.7779V28.9663C65.7779 27.7807 65.7459 26.5639 65.6843 25.3159H67.9065L68.0475 27.0735H68.0949C68.9376 25.7492 70.2164 25.0883 71.9326 25.0883C73.2742 25.0883 74.3942 25.6048 75.2902 26.639C76.1886 27.6744 76.6366 29.0356 76.6366 30.7239ZM74.0623 30.814C74.0623 29.7347 73.8135 28.845 73.3133 28.1447C72.7669 27.4144 72.0333 27.0492 71.1136 27.0492C70.4902 27.0492 69.9237 27.2526 69.4176 27.6536C68.9103 28.058 68.5785 28.5861 68.4232 29.2402C68.345 29.5452 68.3059 29.7948 68.3059 29.9913V31.8402C68.3059 32.6467 68.5595 33.3274 69.0668 33.8832C69.574 34.439 70.233 34.7163 71.0437 34.7163C71.9954 34.7163 72.7361 34.3581 73.2659 33.644C73.7969 32.9287 74.0623 31.9858 74.0623 30.814Z" fill="white"></path>
            <path d="M89.7178 30.7239C89.7178 32.6098 89.1952 34.1004 88.1487 35.1947C87.2135 36.1689 86.0509 36.6554 84.663 36.6554C83.1649 36.6554 82.0888 36.1307 81.4346 35.0815H81.3872V40.9228H78.8604V28.9663C78.8604 27.7807 78.8284 26.5639 78.7667 25.3159H80.9889L81.13 27.0735H81.1774C82.0189 25.7492 83.2977 25.0883 85.015 25.0883C86.3555 25.0883 87.4755 25.6048 88.3738 26.639C89.2687 27.6744 89.7178 29.0356 89.7178 30.7239ZM87.1436 30.814C87.1436 29.7347 86.8935 28.845 86.3934 28.1447C85.847 27.4144 85.1158 27.0492 84.1949 27.0492C83.5703 27.0492 83.005 27.2526 82.4977 27.6536C81.9904 28.058 81.6598 28.5861 81.5045 29.2402C81.4275 29.5452 81.3872 29.7948 81.3872 29.9913V31.8402C81.3872 32.6467 81.6408 33.3274 82.1457 33.8832C82.6529 34.4379 83.3119 34.7163 84.125 34.7163C85.0767 34.7163 85.8174 34.3581 86.3472 33.644C86.8781 32.9287 87.1436 31.9858 87.1436 30.814Z" fill="white"></path>
            <path d="M104.343 32.0921C104.343 33.4002 103.877 34.4644 102.942 35.286C101.915 36.1839 100.484 36.6323 98.6461 36.6323C96.9489 36.6323 95.5883 36.3133 94.5583 35.6743L95.1438 33.6209C96.2532 34.2749 97.4704 34.6031 98.7966 34.6031C99.7483 34.6031 100.489 34.3928 101.021 33.9745C101.551 33.5562 101.815 32.9946 101.815 32.2943C101.815 31.6703 101.597 31.1445 101.16 30.7181C100.725 30.2917 99.9984 29.8954 98.9838 29.5291C96.2224 28.5249 94.8428 27.0539 94.8428 25.1195C94.8428 23.8553 95.3264 22.8187 96.2947 22.0122C97.2594 21.2044 98.5465 20.8011 100.156 20.8011C101.591 20.8011 102.784 21.045 103.735 21.5315L103.104 23.5398C102.215 23.0683 101.21 22.8326 100.085 22.8326C99.196 22.8326 98.5015 23.0464 98.0037 23.4716C97.5829 23.8518 97.372 24.3152 97.372 24.8641C97.372 25.4719 97.6126 25.9746 98.0961 26.3698C98.5169 26.7349 99.2813 27.1301 100.391 27.5565C101.748 28.0892 102.744 28.7121 103.386 29.4262C104.024 30.138 104.343 31.029 104.343 32.0921Z" fill="white"></path>
            <path d="M112.697 27.1647H109.912V32.5484C109.912 33.9177 110.403 34.6018 111.386 34.6018C111.838 34.6018 112.213 34.5637 112.509 34.4874L112.579 36.3583C112.081 36.5397 111.426 36.631 110.614 36.631C109.616 36.631 108.836 36.334 108.273 35.7412C107.712 35.1473 107.43 34.1512 107.43 32.7518V27.1624H105.771V25.3135H107.43V23.2832L109.912 22.5529V25.3135H112.697V27.1647Z" fill="white"></path>
            <path d="M125.264 30.7689C125.264 32.4734 124.764 33.8727 123.766 34.967C122.719 36.0937 121.33 36.6553 119.599 36.6553C117.93 36.6553 116.601 36.1157 115.611 35.0364C114.62 33.9571 114.124 32.5947 114.124 30.9526C114.124 29.2343 114.634 27.8269 115.657 26.7326C116.677 25.6371 118.054 25.0894 119.786 25.0894C121.455 25.0894 122.798 25.629 123.811 26.7094C124.78 27.7575 125.264 29.1107 125.264 30.7689ZM122.642 30.8486C122.642 29.826 122.418 28.9489 121.964 28.2174C121.435 27.3323 120.677 26.8909 119.696 26.8909C118.68 26.8909 117.909 27.3334 117.379 28.2174C116.925 28.9501 116.701 29.841 116.701 30.8949C116.701 31.9175 116.925 32.7946 117.379 33.5249C117.925 34.4101 118.688 34.8515 119.673 34.8515C120.638 34.8515 121.395 34.4008 121.942 33.5018C122.408 32.7565 122.642 31.8702 122.642 30.8486Z" fill="white"></path>
            <path d="M133.477 27.4826C133.227 27.4375 132.961 27.4144 132.681 27.4144C131.792 27.4144 131.105 27.7414 130.621 28.3966C130.2 28.9744 129.989 29.7047 129.989 30.5864V36.4046H127.464L127.487 28.808C127.487 27.5299 127.455 26.3663 127.393 25.3171H129.593L129.686 27.4387H129.756C130.023 26.7095 130.443 26.1225 131.019 25.6822C131.582 25.2859 132.19 25.0883 132.846 25.0883C133.079 25.0883 133.29 25.1044 133.477 25.1333V27.4826Z" fill="white"></path>
            <path d="M144.778 30.3356C144.778 30.777 144.748 31.1491 144.685 31.453H137.105C137.134 32.5484 137.501 33.3862 138.205 33.964C138.843 34.4805 139.669 34.7394 140.684 34.7394C141.806 34.7394 142.83 34.5649 143.751 34.2148L144.147 35.925C143.071 36.3826 141.8 36.6102 140.334 36.6102C138.571 36.6102 137.186 36.1041 136.179 35.093C135.174 34.0819 134.67 32.7241 134.67 31.0208C134.67 29.3487 135.139 27.9563 136.076 26.8458C137.057 25.6602 138.384 25.0674 140.052 25.0674C141.691 25.0674 142.932 25.6602 143.775 26.8458C144.442 27.7876 144.778 28.9524 144.778 30.3356ZM142.368 29.6965C142.385 28.9662 142.22 28.3353 141.877 27.8026C141.44 27.1173 140.768 26.7753 139.864 26.7753C139.038 26.7753 138.366 27.1092 137.853 27.7795C137.432 28.3122 137.182 28.9512 137.105 29.6954H142.368V29.6965Z" fill="white"></path>
            <path d="M58.1333 11.5659C58.1333 12.926 57.7149 13.9498 56.8794 14.6374C56.1054 15.2718 55.0056 15.5896 53.581 15.5896C52.8746 15.5896 52.2702 15.5595 51.7641 15.4994V8.06804C52.4242 7.96404 53.1354 7.91089 53.9034 7.91089C55.2604 7.91089 56.2832 8.19862 56.973 8.77409C57.7457 9.42467 58.1333 10.3549 58.1333 11.5659ZM56.8237 11.5994C56.8237 10.7177 56.5843 10.0417 56.1054 9.57027C55.6266 9.09995 54.9274 8.86422 54.0065 8.86422C53.6154 8.86422 53.2823 8.88964 53.0062 8.9428V14.5923C53.1591 14.6154 53.4388 14.6258 53.8453 14.6258C54.7958 14.6258 55.5294 14.3681 56.0462 13.8528C56.5629 13.3374 56.8237 12.5863 56.8237 11.5994Z" fill="white"></path>
            <path d="M65.0772 12.7537C65.0772 13.5915 64.8319 14.2779 64.3412 14.8164C63.8269 15.3699 63.1454 15.6461 62.2944 15.6461C61.4743 15.6461 60.8212 15.3815 60.3341 14.8499C59.8482 14.3195 59.6052 13.6505 59.6052 12.8439C59.6052 12.0003 59.8553 11.3081 60.3578 10.7708C60.8603 10.2335 61.5359 9.96423 62.3869 9.96423C63.207 9.96423 63.866 10.2289 64.3649 10.7593C64.839 11.2746 65.0772 11.9402 65.0772 12.7537ZM63.7889 12.793C63.7889 12.2904 63.6775 11.8593 63.4559 11.5C63.1952 11.0655 62.8242 10.8482 62.3418 10.8482C61.8429 10.8482 61.4636 11.0655 61.2029 11.5C60.98 11.8593 60.8698 12.2973 60.8698 12.815C60.8698 13.3177 60.9812 13.7487 61.2029 14.1081C61.4719 14.5425 61.8464 14.7598 62.33 14.7598C62.804 14.7598 63.1762 14.5391 63.444 14.0965C63.674 13.7302 63.7889 13.2957 63.7889 12.793Z" fill="white"></path>
            <path d="M74.3884 10.0753L72.6403 15.5226H71.5025L70.7784 13.1572C70.5947 12.5667 70.4453 11.9797 70.3292 11.3973H70.3067C70.1988 11.9959 70.0495 12.5817 69.8575 13.1572L69.0883 15.5226H67.9375L66.2936 10.0753H67.5701L68.2018 12.6649C68.3547 13.2774 68.4803 13.8609 68.581 14.4133H68.6036C68.696 13.958 68.8489 13.3779 69.0646 12.6765L69.8575 10.0765H70.8696L71.6293 12.621C71.813 13.2415 71.9624 13.839 72.0773 14.4144H72.1117C72.1959 13.854 72.3227 13.2566 72.491 12.621L73.1689 10.0765H74.3884V10.0753Z" fill="white"></path>
            <path d="M80.827 15.5225H79.585V12.4025C79.585 11.4411 79.2104 10.9604 78.459 10.9604C78.0905 10.9604 77.793 11.0921 77.5619 11.3567C77.3331 11.6213 77.217 11.9333 77.217 12.2904V15.5214H75.9749V11.6317C75.9749 11.1533 75.9595 10.6345 75.9299 10.0729H77.0214L77.0795 10.9245H77.1139C77.2585 10.6599 77.4742 10.4415 77.7574 10.267C78.094 10.0637 78.4709 9.96082 78.8833 9.96082C79.4048 9.96082 79.8386 10.1249 80.1835 10.4542C80.6125 10.8575 80.827 11.4596 80.827 12.2592V15.5225Z" fill="white"></path>
            <path d="M84.2524 15.5226H83.0115V7.57581H84.2524V15.5226Z" fill="white"></path>
            <path d="M91.5651 12.7537C91.5651 13.5915 91.3197 14.2779 90.8291 14.8164C90.3147 15.3699 89.632 15.6461 88.7823 15.6461C87.9609 15.6461 87.3079 15.3815 86.822 14.8499C86.336 14.3195 86.0931 13.6505 86.0931 12.8439C86.0931 12.0003 86.3432 11.3081 86.8457 10.7708C87.3482 10.2335 88.0237 9.96423 88.8735 9.96423C89.6949 9.96423 90.3526 10.2289 90.8528 10.7593C91.3269 11.2746 91.5651 11.9402 91.5651 12.7537ZM90.2756 12.793C90.2756 12.2904 90.1642 11.8593 89.9426 11.5C89.683 11.0655 89.3109 10.8482 88.8297 10.8482C88.3295 10.8482 87.9503 11.0655 87.6907 11.5C87.4679 11.8593 87.3577 12.2973 87.3577 12.815C87.3577 13.3177 87.4691 13.7487 87.6907 14.1081C87.9597 14.5425 88.3343 14.7598 88.8178 14.7598C89.2919 14.7598 89.6629 14.5391 89.9307 14.0965C90.1618 13.7302 90.2756 13.2957 90.2756 12.793Z" fill="white"></path>
            <path d="M97.5765 15.5225H96.4612L96.3688 14.895H96.3344C95.9528 15.3953 95.4088 15.6461 94.7024 15.6461C94.175 15.6461 93.7483 15.4809 93.4271 15.1527C93.1356 14.8545 92.9898 14.4836 92.9898 14.0433C92.9898 13.3777 93.2743 12.8705 93.8467 12.5192C94.418 12.1679 95.2215 11.9957 96.2562 12.0038V11.9021C96.2562 11.1845 95.8698 10.8263 95.0959 10.8263C94.5448 10.8263 94.0588 10.9615 93.6393 11.2296L93.3868 10.4345C93.906 10.1214 94.5471 9.96423 95.3033 9.96423C96.7634 9.96423 97.4959 10.7153 97.4959 12.2176V14.2236C97.4959 14.7679 97.5231 15.2012 97.5765 15.5225ZM96.287 13.6505V12.8104C94.9169 12.7873 94.2319 13.1536 94.2319 13.9081C94.2319 14.1924 94.3101 14.405 94.4701 14.5472C94.6301 14.6893 94.834 14.7598 95.0769 14.7598C95.3495 14.7598 95.6043 14.6754 95.8366 14.5079C96.0701 14.3392 96.2135 14.1254 96.2668 13.8631C96.2799 13.8041 96.287 13.7325 96.287 13.6505Z" fill="white"></path>
            <path d="M104.634 15.5226H103.532L103.474 14.6478H103.439C103.087 15.3134 102.487 15.6462 101.645 15.6462C100.972 15.6462 100.411 15.3885 99.9666 14.8731C99.5222 14.3578 99.3005 13.6887 99.3005 12.8671C99.3005 11.9854 99.5411 11.2713 100.025 10.7258C100.493 10.2174 101.066 9.96318 101.749 9.96318C102.499 9.96318 103.024 10.2093 103.323 10.7027H103.347V7.57581H104.59V14.055C104.59 14.5854 104.604 15.0742 104.634 15.5226ZM103.347 13.2253V12.3171C103.347 12.1599 103.335 12.0328 103.312 11.9357C103.242 11.6445 103.092 11.3995 102.863 11.2019C102.632 11.0043 102.354 10.905 102.032 10.905C101.569 10.905 101.206 11.0841 100.94 11.4434C100.675 11.8028 100.541 12.2616 100.541 12.822C100.541 13.3605 100.668 13.7973 100.923 14.1336C101.192 14.4918 101.555 14.6709 102.009 14.6709C102.416 14.6709 102.742 14.5218 102.99 14.2226C103.229 13.9464 103.347 13.6136 103.347 13.2253Z" fill="white"></path>
            <path d="M115.257 12.7537C115.257 13.5915 115.012 14.2779 114.521 14.8164C114.007 15.3699 113.326 15.6461 112.474 15.6461C111.655 15.6461 111.002 15.3815 110.514 14.8499C110.028 14.3195 109.785 13.6505 109.785 12.8439C109.785 12.0003 110.035 11.3081 110.538 10.7708C111.04 10.2335 111.716 9.96423 112.568 9.96423C113.387 9.96423 114.047 10.2289 114.545 10.7593C115.019 11.2746 115.257 11.9402 115.257 12.7537ZM113.97 12.793C113.97 12.2904 113.858 11.8593 113.637 11.5C113.375 11.0655 113.005 10.8482 112.522 10.8482C112.024 10.8482 111.644 11.0655 111.383 11.5C111.16 11.8593 111.05 12.2973 111.05 12.815C111.05 13.3177 111.161 13.7487 111.383 14.1081C111.652 14.5425 112.026 14.7598 112.51 14.7598C112.984 14.7598 113.357 14.5391 113.625 14.0965C113.854 13.7302 113.97 13.2957 113.97 12.793Z" fill="white"></path>
            <path d="M121.935 15.5225H120.694V12.4025C120.694 11.4411 120.32 10.9604 119.567 10.9604C119.199 10.9604 118.901 11.0921 118.671 11.3567C118.441 11.6213 118.326 11.9333 118.326 12.2904V15.5214H117.083V11.6317C117.083 11.1533 117.069 10.6345 117.039 10.0729H118.13L118.188 10.9245H118.222C118.368 10.6599 118.584 10.4415 118.866 10.267C119.203 10.0637 119.579 9.96082 119.993 9.96082C120.513 9.96082 120.947 10.1249 121.292 10.4542C121.722 10.8575 121.935 11.4596 121.935 12.2592V15.5225Z" fill="white"></path>
            <path d="M130.294 10.9824H128.927V13.6286C128.927 14.3011 129.17 14.6374 129.651 14.6374C129.874 14.6374 130.059 14.6189 130.204 14.5808L130.236 15.4994C129.991 15.5896 129.669 15.6346 129.272 15.6346C128.781 15.6346 128.399 15.489 128.123 15.1978C127.846 14.9066 127.708 14.4167 127.708 13.7291V10.9824H126.892V10.0752H127.708V9.07685L128.925 8.71863V10.0741H130.293V10.9824H130.294Z" fill="white"></path>
            <path d="M136.87 15.5226H135.626V12.4257C135.626 11.4492 135.252 10.9604 134.502 10.9604C133.926 10.9604 133.532 11.2435 133.317 11.8098C133.28 11.9288 133.258 12.0744 133.258 12.2454V15.5214H132.018V7.57581H133.258V10.8587H133.282C133.673 10.2613 134.234 9.96318 134.96 9.96318C135.475 9.96318 135.9 10.1273 136.238 10.4566C136.659 10.8668 136.87 11.477 136.87 12.2835V15.5226Z" fill="white"></path>
            <path d="M143.653 12.5411C143.653 12.7584 143.636 12.941 143.607 13.09H139.882C139.898 13.6285 140.076 14.0387 140.421 14.323C140.736 14.5772 141.143 14.7043 141.641 14.7043C142.192 14.7043 142.694 14.6188 143.147 14.4467L143.341 15.2879C142.812 15.5121 142.188 15.6242 141.466 15.6242C140.601 15.6242 139.92 15.3757 139.427 14.8788C138.931 14.3819 138.686 13.7152 138.686 12.8786C138.686 12.057 138.915 11.3729 139.376 10.8275C139.857 10.2451 140.508 9.95386 141.329 9.95386C142.132 9.95386 142.743 10.2451 143.155 10.8275C143.488 11.2897 143.653 11.8617 143.653 12.5411ZM142.468 12.228C142.477 11.8686 142.396 11.5589 142.227 11.2978C142.012 10.9615 141.683 10.7928 141.239 10.7928C140.834 10.7928 140.503 10.9569 140.25 11.2862C140.044 11.5485 139.922 11.8617 139.882 12.228H142.468Z" fill="white"></path>
          </svg>
