<svg width="177" height="44" viewBox="0 0 177 44" fill="none" xmlns="http://www.w3.org/2000/svg">
<rect width="177" height="44" rx="5" fill="#323232"/>
<path d="M27.1299 23.3223C26.9932 24.4889 26.6377 25.4232 26.0635 26.125C25.4893 26.8268 24.7464 27.1663 23.835 27.1436C23.0557 27.1253 22.4632 26.8109 22.0576 26.2002L21.7773 27H20.0205L21.8389 16.5H23.7734L23.0283 20.2803C23.5479 19.7197 24.1494 19.4486 24.833 19.4668C25.5485 19.4759 26.109 19.7334 26.5146 20.2393C26.9248 20.7406 27.1436 21.4355 27.1709 22.3242C27.18 22.6068 27.1663 22.9395 27.1299 23.3223ZM25.2158 23.1787C25.2568 22.7913 25.2705 22.4906 25.2568 22.2764C25.2067 21.4834 24.8786 21.0801 24.2725 21.0664C23.7028 21.0482 23.2311 21.3057 22.8574 21.8389L22.3242 24.7783C22.4974 25.2705 22.8665 25.5257 23.4316 25.5439C24.3796 25.5713 24.9606 24.8831 25.1748 23.4795L25.2158 23.1787ZM29.7686 27H27.8271L29.6523 16.5H31.5869L29.7686 27ZM35.6406 19.4668C36.2923 19.4759 36.8529 19.6445 37.3223 19.9727C37.7962 20.2962 38.1426 20.7451 38.3613 21.3193C38.5846 21.889 38.6644 22.5225 38.6006 23.2197C38.4958 24.3955 38.0856 25.348 37.3701 26.0771C36.6592 26.8018 35.7796 27.1549 34.7314 27.1367C34.0889 27.1276 33.5329 26.9635 33.0635 26.6445C32.5941 26.321 32.2477 25.8743 32.0244 25.3047C31.8011 24.735 31.7214 24.1061 31.7852 23.418C31.9036 22.1966 32.3184 21.2259 33.0293 20.5059C33.7402 19.7858 34.6107 19.4395 35.6406 19.4668ZM33.6924 24.1221C33.7015 24.5596 33.804 24.9059 34 25.1611C34.196 25.4118 34.4717 25.5417 34.8271 25.5508C35.4196 25.569 35.8844 25.2979 36.2217 24.7373C36.5589 24.1722 36.7161 23.4316 36.6934 22.5156C36.6751 22.0781 36.568 21.7295 36.3721 21.4697C36.1807 21.2054 35.9049 21.0687 35.5449 21.0596C34.9707 21.0413 34.5104 21.3125 34.1641 21.873C33.8223 22.429 33.665 23.1787 33.6924 24.1221ZM39.5303 23.2949C39.667 22.151 40.0384 21.2236 40.6445 20.5127C41.2552 19.7972 42.0231 19.4463 42.9482 19.46C43.7367 19.4782 44.3245 19.763 44.7119 20.3145L44.9648 19.5967L46.7354 19.6035L45.5254 26.7471C45.3932 27.7314 44.974 28.5107 44.2676 29.085C43.5612 29.6592 42.6862 29.9372 41.6426 29.9189C41.1322 29.9098 40.6445 29.7982 40.1797 29.584C39.7148 29.3743 39.332 29.085 39.0312 28.7158L39.9883 27.54C40.4167 28.0824 40.9544 28.3626 41.6016 28.3809C42.1029 28.3991 42.5312 28.2669 42.8867 27.9844C43.2422 27.7064 43.4837 27.3122 43.6113 26.8018L43.7207 26.3574C43.1829 26.8952 42.5791 27.1549 41.9092 27.1367C41.1891 27.1276 40.6172 26.861 40.1934 26.3369C39.7695 25.8083 39.5371 25.1224 39.4961 24.2793C39.4824 24.0013 39.4938 23.6732 39.5303 23.2949ZM41.4238 24.1016C41.4238 24.5299 41.5127 24.874 41.6904 25.1338C41.8727 25.389 42.1348 25.5234 42.4766 25.5371C43.0007 25.5553 43.4655 25.332 43.8711 24.8672L44.4453 21.7363C44.2493 21.3079 43.887 21.0846 43.3584 21.0664C42.8662 21.0527 42.4492 21.251 42.1074 21.6611C41.7656 22.0713 41.5514 22.6159 41.4648 23.2949C41.4329 23.6276 41.4193 23.8965 41.4238 24.1016ZM48.3281 24.9629C48.6335 24.9538 48.8932 25.0495 49.1074 25.25C49.3262 25.446 49.4355 25.6943 49.4355 25.9951C49.4447 26.2959 49.3444 26.5534 49.1348 26.7676C48.9251 26.9772 48.6676 27.082 48.3623 27.082C48.057 27.0911 47.7995 27 47.5898 26.8086C47.3802 26.6172 47.2708 26.3688 47.2617 26.0635C47.2526 25.7581 47.3506 25.5007 47.5557 25.291C47.7607 25.0814 48.0182 24.972 48.3281 24.9629ZM54.6719 19.46C55.36 19.4782 55.916 19.7539 56.3398 20.2871L57.0645 16.5H58.999L57.1807 27H55.458L55.5674 26.207C55.016 26.8496 54.3734 27.1618 53.6396 27.1436C53.1794 27.139 52.776 27.0182 52.4297 26.7812C52.0833 26.5443 51.8145 26.2048 51.623 25.7627C51.4362 25.3161 51.3337 24.8193 51.3154 24.2725C51.3018 23.9854 51.3086 23.7074 51.3359 23.4385L51.377 23.1309C51.4863 22.3743 51.696 21.709 52.0059 21.1348C52.3203 20.5605 52.7031 20.1344 53.1543 19.8564C53.61 19.5785 54.1159 19.4463 54.6719 19.46ZM53.2705 23.4385C53.234 23.7848 53.2227 24.0765 53.2363 24.3135C53.2819 25.1156 53.6055 25.5234 54.207 25.5371C54.7493 25.5599 55.221 25.3047 55.6221 24.7715L56.1484 21.832C55.9707 21.3444 55.6152 21.0892 55.082 21.0664C54.6126 21.0527 54.2207 21.235 53.9062 21.6133C53.5964 21.987 53.3844 22.5954 53.2705 23.4385ZM62.2393 27.1367C61.5921 27.1322 61.0179 26.9749 60.5166 26.665C60.0199 26.3506 59.6484 25.9222 59.4023 25.3799C59.1562 24.833 59.0605 24.2314 59.1152 23.5752L59.1357 23.3018C59.2041 22.5817 59.4137 21.9209 59.7646 21.3193C60.1156 20.7178 60.5667 20.2552 61.1182 19.9316C61.6696 19.6035 62.2803 19.4486 62.9502 19.4668C63.9027 19.485 64.6227 19.8359 65.1104 20.5195C65.6025 21.1986 65.7894 22.0599 65.6709 23.1035L65.5615 23.9443H61.0293C61.0111 24.4229 61.1273 24.8057 61.3779 25.0928C61.6286 25.3799 61.9704 25.528 62.4033 25.5371C63.1051 25.5553 63.7204 25.2842 64.249 24.7236L65.1309 25.8174C64.8529 26.2367 64.4518 26.5648 63.9277 26.8018C63.4036 27.0342 62.8408 27.1458 62.2393 27.1367ZM62.8545 21.0596C62.499 21.0505 62.1823 21.1621 61.9043 21.3945C61.6309 21.627 61.3848 22.0303 61.166 22.6045H63.8184L63.8594 22.4268C63.8867 22.2445 63.889 22.0713 63.8662 21.9072C63.8206 21.6429 63.709 21.4378 63.5312 21.292C63.3535 21.1416 63.1279 21.0641 62.8545 21.0596ZM69.376 25.5508C69.7314 25.5599 70.0277 25.4642 70.2646 25.2637C70.5016 25.0586 70.6566 24.7874 70.7295 24.4502L72.541 24.4434C72.5091 24.9629 72.3451 25.43 72.0488 25.8447C71.7572 26.2594 71.3652 26.583 70.873 26.8154C70.3854 27.0479 69.8704 27.1572 69.3281 27.1436C68.4303 27.1299 67.7194 26.82 67.1953 26.2139C66.6712 25.6077 66.4183 24.8011 66.4365 23.7939L66.457 23.418L66.4639 23.3428C66.5869 22.1396 66.9925 21.1872 67.6807 20.4854C68.3688 19.779 69.2188 19.4395 70.2305 19.4668C71.0645 19.485 71.7253 19.7585 72.2129 20.2871C72.7051 20.8112 72.9466 21.5039 72.9375 22.3652H71.1396C71.1396 21.9688 71.0531 21.6566 70.8799 21.4287C70.7067 21.2008 70.4469 21.0778 70.1006 21.0596C69.18 21.0322 68.6217 21.7044 68.4258 23.0762C68.3574 23.5729 68.3324 23.9922 68.3506 24.334C68.3962 25.1315 68.738 25.5371 69.376 25.5508ZM77.5654 27C77.5062 26.8132 77.4811 26.5898 77.4902 26.3301C76.9342 26.8861 76.3053 27.1549 75.6035 27.1367C74.9564 27.1276 74.4186 26.918 73.9902 26.5078C73.5664 26.0931 73.3682 25.5827 73.3955 24.9766C73.4274 24.1699 73.7646 23.5524 74.4072 23.124C75.0544 22.6911 75.9202 22.4746 77.0049 22.4746L77.9072 22.4883L78.0029 22.0439C78.0303 21.8936 78.0371 21.75 78.0234 21.6133C78.0007 21.3991 77.9186 21.2327 77.7773 21.1143C77.6406 20.9912 77.4583 20.9274 77.2305 20.9229C76.9297 20.9137 76.6745 20.9889 76.4648 21.1484C76.2552 21.3034 76.1208 21.529 76.0615 21.8252L74.127 21.832C74.1589 21.1257 74.4824 20.5537 75.0977 20.1162C75.7174 19.6742 76.4808 19.4577 77.3877 19.4668C78.2262 19.485 78.8825 19.7357 79.3564 20.2188C79.8304 20.6973 80.0286 21.3148 79.9512 22.0713L79.3838 25.6123L79.3496 26.0498C79.3405 26.3734 79.3792 26.6468 79.4658 26.8701L79.459 27H77.5654ZM76.082 25.6396C76.638 25.6579 77.1234 25.4163 77.5381 24.915L77.7773 23.6367L77.1074 23.6299C76.3965 23.6481 75.8838 23.8646 75.5693 24.2793C75.4554 24.4297 75.3848 24.6143 75.3574 24.833C75.321 25.0791 75.3711 25.2751 75.5078 25.4209C75.6491 25.5622 75.8405 25.6351 76.082 25.6396ZM84.5518 17.7852L84.2305 19.6035H85.4609L85.208 21.0527H83.9775L83.3486 24.7578C83.3213 24.9902 83.3395 25.168 83.4033 25.291C83.4671 25.4141 83.6221 25.4801 83.8682 25.4893C83.9411 25.4938 84.137 25.4824 84.4561 25.4551L84.3193 26.9658C83.9775 27.0798 83.6084 27.1322 83.2119 27.123C82.5785 27.1139 82.1068 26.9157 81.7969 26.5283C81.487 26.141 81.3594 25.6169 81.4141 24.9561L82.0498 21.0527H81.0039L81.2568 19.6035H82.3027L82.6172 17.7852H84.5518ZM88.2432 20.4238C88.8219 19.7767 89.4896 19.4577 90.2461 19.4668C90.9798 19.485 91.5176 19.7493 91.8594 20.2598C92.2057 20.7656 92.3356 21.4583 92.249 22.3379L91.4697 27H89.542L90.3281 22.3174C90.3509 22.1396 90.3555 21.9756 90.3418 21.8252C90.2962 21.333 90.0091 21.0801 89.4805 21.0664C88.9609 21.0482 88.5052 21.2715 88.1133 21.7363L87.1836 27H85.2559L87.0742 16.5H89.0088L88.2432 20.4238ZM95.0107 27H93.0693L94.8945 16.5H96.8291L95.0107 27ZM100.883 19.4668C101.535 19.4759 102.095 19.6445 102.564 19.9727C103.038 20.2962 103.385 20.7451 103.604 21.3193C103.827 21.889 103.907 22.5225 103.843 23.2197C103.738 24.3955 103.328 25.348 102.612 26.0771C101.901 26.8018 101.022 27.1549 99.9736 27.1367C99.3311 27.1276 98.7751 26.9635 98.3057 26.6445C97.8363 26.321 97.4899 25.8743 97.2666 25.3047C97.0433 24.735 96.9635 24.1061 97.0273 23.418C97.1458 22.1966 97.5605 21.2259 98.2715 20.5059C98.9824 19.7858 99.8529 19.4395 100.883 19.4668ZM98.9346 24.1221C98.9437 24.5596 99.0462 24.9059 99.2422 25.1611C99.4382 25.4118 99.7139 25.5417 100.069 25.5508C100.662 25.569 101.127 25.2979 101.464 24.7373C101.801 24.1722 101.958 23.4316 101.936 22.5156C101.917 22.0781 101.81 21.7295 101.614 21.4697C101.423 21.2054 101.147 21.0687 100.787 21.0596C100.213 21.0413 99.7526 21.3125 99.4062 21.873C99.0645 22.429 98.9072 23.1787 98.9346 24.1221ZM107.452 19.5967L107.288 20.4717C107.881 19.7835 108.598 19.4486 109.441 19.4668C110.139 19.4805 110.654 19.7357 110.986 20.2324C111.319 20.7292 111.44 21.4173 111.349 22.2969L110.569 27H108.642L109.435 22.2764C109.457 22.0986 109.462 21.9368 109.448 21.791C109.389 21.3262 109.097 21.0869 108.573 21.0732C108.067 21.055 107.614 21.2897 107.213 21.7773L106.29 27H104.362L105.647 19.6035L107.452 19.5967ZM113.434 24.9629C113.739 24.9538 113.999 25.0495 114.213 25.25C114.432 25.446 114.541 25.6943 114.541 25.9951C114.55 26.2959 114.45 26.5534 114.24 26.7676C114.031 26.9772 113.773 27.082 113.468 27.082C113.162 27.0911 112.905 27 112.695 26.8086C112.486 26.6172 112.376 26.3688 112.367 26.0635C112.358 25.7581 112.456 25.5007 112.661 25.291C112.866 25.0814 113.124 24.972 113.434 24.9629ZM119.347 25.5508C119.702 25.5599 119.998 25.4642 120.235 25.2637C120.472 25.0586 120.627 24.7874 120.7 24.4502L122.512 24.4434C122.48 24.9629 122.316 25.43 122.02 25.8447C121.728 26.2594 121.336 26.583 120.844 26.8154C120.356 27.0479 119.841 27.1572 119.299 27.1436C118.401 27.1299 117.69 26.82 117.166 26.2139C116.642 25.6077 116.389 24.8011 116.407 23.7939L116.428 23.418L116.435 23.3428C116.558 22.1396 116.963 21.1872 117.651 20.4854C118.34 19.779 119.189 19.4395 120.201 19.4668C121.035 19.485 121.696 19.7585 122.184 20.2871C122.676 20.8112 122.917 21.5039 122.908 22.3652H121.11C121.11 21.9688 121.024 21.6566 120.851 21.4287C120.677 21.2008 120.418 21.0778 120.071 21.0596C119.151 21.0322 118.592 21.7044 118.396 23.0762C118.328 23.5729 118.303 23.9922 118.321 24.334C118.367 25.1315 118.709 25.5371 119.347 25.5508ZM127.488 19.4668C128.14 19.4759 128.701 19.6445 129.17 19.9727C129.644 20.2962 129.99 20.7451 130.209 21.3193C130.432 21.889 130.512 22.5225 130.448 23.2197C130.343 24.3955 129.933 25.348 129.218 26.0771C128.507 26.8018 127.627 27.1549 126.579 27.1367C125.937 27.1276 125.381 26.9635 124.911 26.6445C124.442 26.321 124.095 25.8743 123.872 25.3047C123.649 24.735 123.569 24.1061 123.633 23.418C123.751 22.1966 124.166 21.2259 124.877 20.5059C125.588 19.7858 126.458 19.4395 127.488 19.4668ZM125.54 24.1221C125.549 24.5596 125.652 24.9059 125.848 25.1611C126.044 25.4118 126.319 25.5417 126.675 25.5508C127.267 25.569 127.732 25.2979 128.069 24.7373C128.407 24.1722 128.564 23.4316 128.541 22.5156C128.523 22.0781 128.416 21.7295 128.22 21.4697C128.028 21.2054 127.753 21.0687 127.393 21.0596C126.818 21.0413 126.358 21.3125 126.012 21.873C125.67 22.429 125.513 23.1787 125.54 24.1221ZM134.085 19.5967L133.928 20.4375C134.525 19.7721 135.247 19.4486 136.095 19.4668C136.55 19.4759 136.929 19.5807 137.229 19.7812C137.53 19.9818 137.733 20.2529 137.838 20.5947C138.49 19.8245 139.255 19.4486 140.135 19.4668C140.814 19.4805 141.324 19.7129 141.666 20.1641C142.012 20.6152 142.158 21.2669 142.104 22.1191L142.09 22.29L141.304 27H139.369L140.155 22.2764C140.174 22.1077 140.18 21.9505 140.176 21.8047C140.144 21.3262 139.87 21.0801 139.355 21.0664C138.827 21.0664 138.373 21.349 137.995 21.9141L137.975 22.0713L137.113 27H135.186L135.972 22.29C135.99 22.1214 135.997 21.9642 135.992 21.8184C135.96 21.3353 135.689 21.0869 135.179 21.0732C134.691 21.0596 134.251 21.2897 133.859 21.7637L132.937 27H131.009L132.287 19.6035L134.085 19.5967ZM144.182 24.9629C144.487 24.9538 144.747 25.0495 144.961 25.25C145.18 25.446 145.289 25.6943 145.289 25.9951C145.298 26.2959 145.198 26.5534 144.988 26.7676C144.779 26.9772 144.521 27.082 144.216 27.082C143.91 27.0911 143.653 27 143.443 26.8086C143.234 26.6172 143.124 26.3688 143.115 26.0635C143.106 25.7581 143.204 25.5007 143.409 25.291C143.614 25.0814 143.872 24.972 144.182 24.9629ZM150.765 17.7852L150.443 19.6035H151.674L151.421 21.0527H150.19L149.562 24.7578C149.534 24.9902 149.552 25.168 149.616 25.291C149.68 25.4141 149.835 25.4801 150.081 25.4893C150.154 25.4938 150.35 25.4824 150.669 25.4551L150.532 26.9658C150.19 27.0798 149.821 27.1322 149.425 27.123C148.791 27.1139 148.32 26.9157 148.01 26.5283C147.7 26.141 147.572 25.6169 147.627 24.9561L148.263 21.0527H147.217L147.47 19.6035H148.516L148.83 17.7852H150.765ZM156.582 21.4561C156.318 21.4105 156.101 21.3877 155.933 21.3877C155.244 21.3695 154.7 21.627 154.299 22.1602L153.444 27H151.517L152.802 19.6035L154.613 19.5967L154.436 20.499C154.9 19.8018 155.475 19.4531 156.158 19.4531C156.35 19.4531 156.573 19.485 156.828 19.5488L156.582 21.4561Z" fill="white"/>
</svg>
