<svg width="160" height="47" viewBox="0 0 160 47" fill="none" xmlns="http://www.w3.org/2000/svg">
            <path d="M154.074 46.2859H5.92593C2.66815 46.2859 0 43.6809 0 40.5002V5.78578C0 2.60507 2.66815 4.59054e-05 5.92593 4.59054e-05H154.074C157.332 4.59054e-05 160 2.60507 160 5.78578V40.5002C160 43.6809 157.332 46.2859 154.074 46.2859Z" fill="#323232"></path>
            <path d="M154.074 0.927206C156.818 0.927206 159.05 3.10698 159.05 5.78578V40.5002C159.05 43.179 156.818 45.3587 154.074 45.3587H5.92593C3.18222 45.3587 0.949629 43.179 0.949629 40.5002V5.78578C0.949629 3.10698 3.18222 0.927206 5.92593 0.927206H154.074ZM154.074 4.59054e-05H5.92593C2.66815 4.59054e-05 0 2.60507 0 5.78578V40.5002C0 43.6809 2.66815 46.2859 5.92593 46.2859H154.074C157.332 46.2859 160 43.6809 160 40.5002V5.78578C160 2.60507 157.332 4.59054e-05 154.074 4.59054e-05Z" fill="#A6A6A6"></path>
            <path d="M56.1982 11.8536C56.1982 12.8198 55.9019 13.5936 55.3182 14.1707C54.6471 14.8549 53.773 15.1992 52.7019 15.1992C51.6782 15.1992 50.8041 14.8491 50.0871 14.1592C49.3686 13.4591 49.0101 12.5999 49.0101 11.5715C49.0101 10.5431 49.3686 9.68391 50.0871 8.98962C50.8041 8.29389 51.6782 7.94385 52.7019 7.94385C53.2116 7.94385 53.6975 8.04654 54.1612 8.23747C54.6234 8.42985 54.9997 8.69021 55.2723 9.01131L54.653 9.62171C54.1775 9.07351 53.5301 8.80303 52.7019 8.80303C51.9553 8.80303 51.3078 9.0576 50.7582 9.57108C50.2145 10.086 49.9419 10.7528 49.9419 11.5715C49.9419 12.3902 50.2145 13.0628 50.7582 13.5777C51.3078 14.0854 51.9553 14.3458 52.7019 14.3458C53.4945 14.3458 54.1612 14.0854 54.6871 13.5719C55.0338 13.232 55.2308 12.7634 55.2827 12.1645H52.7019V11.3285H56.1449C56.1864 11.5093 56.1982 11.6843 56.1982 11.8536Z" fill="white" stroke="white" stroke-width="0.16" stroke-miterlimit="10"></path>
            <path d="M61.661 8.95498H58.4269V11.1536H61.3425V11.9896H58.4269V14.1882H61.661V15.0401H57.5114V8.10303H61.661V8.95498Z" fill="white" stroke="white" stroke-width="0.16" stroke-miterlimit="10"></path>
            <path d="M65.5157 15.0401H64.6002V8.95498H62.6165V8.10303H67.5009V8.95498H65.5157V15.0401Z" fill="white" stroke="white" stroke-width="0.16" stroke-miterlimit="10"></path>
            <path d="M71.0352 15.0401V8.10303H71.9492V15.0401H71.0352Z" fill="white" stroke="white" stroke-width="0.16" stroke-miterlimit="10"></path>
            <path d="M76.0015 15.0401H75.0933V8.95498H73.1022V8.10303H77.9926V8.95498H76.0015V15.0401Z" fill="white" stroke="white" stroke-width="0.16" stroke-miterlimit="10"></path>
            <path d="M87.2399 14.1476C86.5391 14.8491 85.671 15.1992 84.6354 15.1992C83.594 15.1992 82.7258 14.8491 82.0251 14.1476C81.3258 13.4475 80.9777 12.5883 80.9777 11.5715C80.9777 10.5547 81.3258 9.69548 82.0251 8.9954C82.7258 8.29388 83.594 7.94385 84.6354 7.94385C85.6651 7.94385 86.5332 8.29388 87.234 9.00119C87.9392 9.70705 88.2873 10.5604 88.2873 11.5715C88.2873 12.5883 87.9391 13.4475 87.2399 14.1476ZM82.7021 13.5661C83.2295 14.0854 83.871 14.3458 84.6354 14.3458C85.394 14.3458 86.0414 14.0854 86.5628 13.5661C87.0888 13.0469 87.3554 12.3801 87.3554 11.5715C87.3554 10.7629 87.0888 10.0961 86.5628 9.57687C86.0414 9.0576 85.394 8.79724 84.6354 8.79724C83.871 8.79724 83.2295 9.0576 82.7021 9.57687C82.1762 10.0961 81.9095 10.7629 81.9095 11.5715C81.9095 12.3801 82.1762 13.0469 82.7021 13.5661Z" fill="white" stroke="white" stroke-width="0.16" stroke-miterlimit="10"></path>
            <path d="M89.5719 15.0401V8.10303H90.683L94.1378 13.4982H94.1778L94.1378 12.1646V8.10303H95.0519V15.0401H94.0978L90.48 9.37878H90.44L90.48 10.7182V15.0401H89.5719Z" fill="white" stroke="white" stroke-width="0.16" stroke-miterlimit="10"></path>
            <path d="M80.7523 25.1709C77.9686 25.1709 75.6946 27.2393 75.6946 30.0931C75.6946 32.9238 77.9686 35.0139 80.7523 35.0139C83.542 35.0139 85.8161 32.9238 85.8161 30.0931C85.8161 27.2393 83.542 25.1709 80.7523 25.1709ZM80.7523 33.0757C79.2249 33.0757 77.9109 31.8448 77.9109 30.0931C77.9109 28.3184 79.2249 27.1091 80.7523 27.1091C82.2798 27.1091 83.5998 28.3184 83.5998 30.0931C83.5998 31.8448 82.2798 33.0757 80.7523 33.0757ZM69.7168 25.1709C66.9272 25.1709 64.659 27.2393 64.659 30.0931C64.659 32.9238 66.9272 35.0139 69.7168 35.0139C72.5049 35.0139 74.7746 32.9238 74.7746 30.0931C74.7746 27.2393 72.5049 25.1709 69.7168 25.1709ZM69.7168 33.0757C68.1879 33.0757 66.8694 31.8448 66.8694 30.0931C66.8694 28.3184 68.1879 27.1091 69.7168 27.1091C71.2442 27.1091 72.5583 28.3184 72.5583 30.0931C72.5583 31.8448 71.2442 33.0757 69.7168 33.0757ZM56.585 26.6795V28.7711H61.7005C61.5509 29.9398 61.1509 30.799 60.5375 31.3978C59.7909 32.121 58.6279 32.9238 56.585 32.9238C53.4368 32.9238 50.9716 30.4432 50.9716 27.3695C50.9716 24.2958 53.4368 21.8152 56.585 21.8152C58.2872 21.8152 59.5257 22.4646 60.4398 23.3065L61.9494 21.8326C60.6709 20.6407 58.9701 19.7251 56.585 19.7251C52.2679 19.7251 48.6398 23.1546 48.6398 27.3695C48.6398 31.5844 52.2679 35.0139 56.585 35.0139C58.9183 35.0139 60.6709 34.2675 62.0487 32.8674C63.4605 31.4889 63.9005 29.5507 63.9005 27.9857C63.9005 27.4997 63.859 27.0527 63.7849 26.6795H56.585ZM110.283 28.301C109.866 27.2003 108.582 25.1709 105.966 25.1709C103.373 25.1709 101.215 27.1655 101.215 30.0931C101.215 32.85 103.351 35.0139 106.215 35.0139C108.53 35.0139 109.866 33.6354 110.416 32.8327L108.698 31.7146C108.124 32.5333 107.343 33.0757 106.215 33.0757C105.093 33.0757 104.289 32.5738 103.773 31.5844L110.515 28.8608L110.283 28.301ZM103.409 29.9398C103.351 28.0421 104.918 27.0701 106.041 27.0701C106.921 27.0701 107.668 27.4997 107.917 28.1144L103.409 29.9398ZM97.9286 34.7145H100.145V20.2502H97.9286V34.7145ZM94.299 26.2673H94.2249C93.7272 25.6916 92.7775 25.1709 91.5746 25.1709C89.0501 25.1709 86.742 27.3348 86.742 30.109C86.742 32.8674 89.0501 35.0139 91.5746 35.0139C92.7775 35.0139 93.7272 34.4888 94.2249 33.8958H94.299V34.6017C94.299 36.4835 93.2694 37.4945 91.6086 37.4945C90.2546 37.4945 89.4146 36.5399 89.0679 35.7371L87.1405 36.5225C87.6961 37.8272 89.1672 39.4327 91.6086 39.4327C94.2072 39.4327 96.3998 37.94 96.3998 34.308V25.4703H94.299V26.2673ZM91.7642 33.0757C90.2368 33.0757 88.9583 31.8274 88.9583 30.109C88.9583 28.3748 90.2368 27.1091 91.7642 27.1091C93.2694 27.1091 94.4561 28.3748 94.4561 30.109C94.4561 31.8274 93.2694 33.0757 91.7642 33.0757ZM120.659 20.2502H115.358V34.7145H117.569V29.2339H120.659C123.114 29.2339 125.521 27.4997 125.521 24.7413C125.521 21.9844 123.108 20.2502 120.659 20.2502ZM120.717 27.222H117.569V22.2621H120.717C122.367 22.2621 123.309 23.6001 123.309 24.7413C123.309 25.8609 122.367 27.222 120.717 27.222ZM134.38 25.1434C132.783 25.1434 131.123 25.8319 130.44 27.3579L132.401 28.1607C132.823 27.3579 133.6 27.0976 134.42 27.0976C135.567 27.0976 136.73 27.7702 136.748 28.9577V29.1096C136.348 28.8839 135.492 28.5498 134.438 28.5498C132.326 28.5498 130.173 29.6852 130.173 31.8043C130.173 33.7425 131.903 34.9907 133.849 34.9907C135.336 34.9907 136.157 34.3355 136.672 33.5732H136.748V34.6913H138.883V29.1428C138.883 26.5783 136.921 25.1434 134.38 25.1434ZM134.114 33.0699C133.391 33.0699 132.383 32.7198 132.383 31.8448C132.383 30.7252 133.64 30.2956 134.727 30.2956C135.7 30.2956 136.157 30.5054 136.748 30.7816C136.575 32.121 135.394 33.0699 134.114 33.0699ZM146.66 25.4602L144.12 31.7305H144.044L141.418 25.4602H139.034L142.98 34.2227L140.729 39.0986H143.038L149.12 25.4602H146.66ZM126.736 34.7145H128.952V20.2502H126.736V34.7145Z" fill="white"></path>
            <path d="M12.3671 8.72349C12.019 9.07931 11.8175 9.6333 11.8175 10.3507V35.941C11.8175 36.6584 12.019 37.2124 12.3671 37.5683L12.4531 37.6464L27.1405 23.3122V22.9737L12.4531 8.6396L12.3671 8.72349Z" fill="url(#paint0_linear)"></path>
            <path d="M32.031 28.0927L27.1406 23.3122V22.9737L32.0369 18.1933L32.1466 18.2555L37.9451 21.4767C39.5999 22.3908 39.5999 23.8951 37.9451 24.815L32.1466 28.0305L32.031 28.0927Z" fill="url(#paint1_linear)"></path>
            <path d="M32.1469 28.0306L27.141 23.1431L12.3677 37.5684C12.9173 38.1325 13.8136 38.2005 14.8329 37.6364L32.1469 28.0306Z" fill="url(#paint2_linear)"></path>
            <path d="M32.1469 18.2555L14.8329 8.64969C13.8136 8.09137 12.9173 8.15935 12.3677 8.72346L27.141 23.1429L32.1469 18.2555Z" fill="url(#paint3_linear)"></path>
            <defs>
              <linearGradient id="paint0_linear" x1="25.8364" y1="36.2075" x2="6.42228" y2="16.323" gradientUnits="userSpaceOnUse">
                <stop stop-color="#00A0FF"></stop>
                <stop offset="0.0066" stop-color="#00A1FF"></stop>
                <stop offset="0.2601" stop-color="#00BEFF"></stop>
                <stop offset="0.5122" stop-color="#00D2FF"></stop>
                <stop offset="0.7604" stop-color="#00DFFF"></stop>
                <stop offset="1" stop-color="#00E3FF"></stop>
              </linearGradient>
              <linearGradient id="paint1_linear" x1="40.0999" y1="23.1413" x2="11.4221" y2="23.1413" gradientUnits="userSpaceOnUse">
                <stop stop-color="#FFE000"></stop>
                <stop offset="0.4087" stop-color="#FFBD00"></stop>
                <stop offset="0.7754" stop-color="#FFA500"></stop>
                <stop offset="1" stop-color="#FF9C00"></stop>
              </linearGradient>
              <linearGradient id="paint2_linear" x1="29.4249" y1="20.4862" x2="3.09773" y2="-6.47889" gradientUnits="userSpaceOnUse">
                <stop stop-color="#FF3A44"></stop>
                <stop offset="1" stop-color="#C31162"></stop>
              </linearGradient>
              <linearGradient id="paint3_linear" x1="8.64892" y1="46.082" x2="20.4052" y2="34.041" gradientUnits="userSpaceOnUse">
                <stop stop-color="#32A071"></stop>
                <stop offset="0.0685" stop-color="#2DA771"></stop>
                <stop offset="0.4762" stop-color="#15CF74"></stop>
                <stop offset="0.8009" stop-color="#06E775"></stop>
                <stop offset="1" stop-color="#00F076"></stop>
              </linearGradient>
            </defs>
          </svg>
