<svg width="32" height="26" viewBox="0 0 32 26" fill="none" xmlns="http://www.w3.org/2000/svg">
            <path d="M10.0669 26.0001C22.1394 26.0001 28.7444 15.9957 28.7444 7.3226C28.7444 7.04135 28.7381 6.75385 28.7256 6.4726C30.0105 5.5434 31.1193 4.39246 32 3.07385C30.8034 3.60626 29.5329 3.95396 28.2319 4.1051C29.6017 3.284 30.6274 1.99408 31.1187 0.474478C29.8301 1.2382 28.4208 1.77694 26.9513 2.0676C25.9611 1.01554 24.652 0.318944 23.2262 0.0855234C21.8005 -0.147897 20.3376 0.0948559 19.0637 0.776251C17.7897 1.45765 16.7757 2.53973 16.1785 3.8552C15.5812 5.17068 15.4339 6.64628 15.7594 8.05385C13.15 7.92291 10.5972 7.24506 8.26664 6.06425C5.93604 4.88345 3.87959 3.22604 2.23062 1.19948C1.39253 2.64445 1.13608 4.35432 1.51337 5.98158C1.89067 7.60884 2.87342 9.03139 4.26188 9.9601C3.2195 9.92701 2.19997 9.64636 1.2875 9.14135V9.2226C1.28657 10.739 1.8108 12.2089 2.77108 13.3825C3.73136 14.5561 5.06843 15.3609 6.555 15.6601C5.58941 15.9243 4.57598 15.9628 3.59313 15.7726C4.01261 17.0767 4.82876 18.2173 5.92769 19.0352C7.02662 19.8532 8.35349 20.3076 9.72313 20.3351C7.3979 22.1616 4.52557 23.1523 1.56875 23.1476C1.04438 23.1468 0.520532 23.1147 0 23.0514C3.00381 24.9785 6.49804 26.002 10.0669 26.0001Z" fill="#323232"></path>
          </svg>
